<?xml version="1.0" standalone="no"?>
<!DOCTYPE svg PUBLIC "-//W3C//DTD SVG 20010904//EN"
 "http://www.w3.org/TR/2001/REC-SVG-20010904/DTD/svg10.dtd">
<svg version="1.0" xmlns="http://www.w3.org/2000/svg"
 width="25.000000pt" height="25.000000pt" viewBox="0 0 60.000000 60.000000"
 preserveAspectRatio="xMidYMid meet">

<g transform="translate(0.000000,60.000000) scale(0.100000,-0.100000)"
fill="#383c44" stroke="none">
<path d="M12 588 c-7 -7 -12 -16 -12 -21 0 -5 31 -67 69 -138 l69 -129 -70
-131 c-67 -126 -75 -153 -44 -165 8 -3 140 58 295 136 222 111 281 145 281
160 0 15 -59 49 -280 160 -153 77 -283 140 -288 140 -4 0 -13 -5 -20 -12z
m295 -145 c150 -76 273 -140 273 -143 0 -10 -550 -284 -556 -277 -6 6 18 55
103 214 l28 53 123 0 c74 0 122 4 122 10 0 6 -48 10 -123 10 l-122 0 -65 123
c-69 129 -76 147 -63 147 4 0 131 -61 280 -137z"/>
</g>
</svg>
